<?xml version="1.0" encoding="iso-8859-1"?>
<!-- Uploaded to: SVG Repo, www.svgrepo.com, Generator: SVG Repo Mixer Tools -->
<svg version="1.1" id="Layer_1" xmlns="http://www.w3.org/2000/svg" xmlns:xlink="http://www.w3.org/1999/xlink" 
	 viewBox="0 0 512.001 512.001" xml:space="preserve">
<path style="fill:#FBB03B;" d="M407.985,16.62c-51.81,0-93.935,56.35-96.014,126.887c48.406,0.149,87.616,54.138,87.616,120.731
	c0,5.55-0.367,10.968-0.894,16.319c3.06,0.404,6.154,0.645,9.292,0.645c53.136,0,96.212-59.229,96.212-132.291
	S461.121,16.62,407.985,16.62z"/>
<path style="fill:#F15A24;" d="M351.947,156.951c-0.117-2.67-0.258-5.33-0.258-8.039c0-63.649,32.7-116.763,76.254-129.403
	c-6.442-1.87-13.111-2.888-19.957-2.888c-51.81,0-93.935,56.35-96.014,126.887C326.388,143.552,339.955,148.444,351.947,156.951z"/>
<g>
	<path style="fill:#FF7BAC;" d="M270.424,218.719c-3.067,10.317-5.142,21.323-6.019,32.842
		C267.145,241.039,269.185,230.061,270.424,218.719z"/>
	<path style="fill:#FF7BAC;" d="M223.959,264.238c0-45.58,18.381-85.232,45.493-105.784
		C257.951,77.701,206.225,16.761,144.128,16.761c-70.543,0-127.73,78.632-127.73,175.629s57.187,175.629,127.73,175.629
		c34.688,0,66.126-19.041,89.143-49.899C227.365,301.883,223.959,283.627,223.959,264.238z"/>
</g>
<path style="fill:#FFFFFF;" d="M361.614,121.766l-15.413-2.45c3.399-21.376,10.609-41.67,20.852-58.684l13.371,8.049
	C371.205,83.994,364.701,102.351,361.614,121.766z"/>
<path style="fill:#D4145A;" d="M72.279,192.39c0-83.794,42.691-153.835,99.79-171.363c-8.998-2.761-18.338-4.266-27.941-4.266
	c-70.543,0-127.73,78.632-127.73,175.629s57.187,175.629,127.73,175.629c9.602,0,18.944-1.504,27.941-4.266
	C114.97,346.225,72.279,276.184,72.279,192.39z"/>
<path style="fill:#FFFFFF;" d="M80.083,192.012H64.477c0-38.495,8.857-75.893,25.611-107.268l13.767,7.258
	C88.302,121.122,80.083,155.598,80.083,192.012z"/>
<rect x="127.971" y="384.495" style="fill:#FBB03B;" width="32.253" height="15.606"/>
<rect x="112.365" y="407.384" style="fill:#D4145A;" width="63.465" height="15.606"/>
<rect x="136.295" y="432.354" width="15.606" height="79.072"/>
<rect x="295.479" y="400.101" style="fill:#FBB03B;" width="32.253" height="15.606"/>
<rect x="279.872" y="424.031" style="fill:#009245;" width="63.465" height="15.606"/>
<rect x="407.844" y="296.059" style="fill:#FBB03B;" width="16.647" height="15.606"/>
<rect x="399.52" y="319.989" style="fill:#F15A24;" width="32.253" height="15.606"/>
<rect x="399.52" y="343.918" width="15.606" height="167.507"/>
<rect x="303.802" y="447.96" width="15.606" height="63.465"/>
<ellipse style="fill:#7AD3AB;" cx="311.772" cy="264.233" rx="87.811" ry="120.74"/>
<path style="fill:#22B573;" d="M263.875,264.238c0-57.23,28.989-105.051,67.857-117.492c-6.421-2.056-13.081-3.252-19.958-3.252
	c-48.499,0-87.814,54.059-87.814,120.745s39.315,120.745,87.814,120.745c6.876,0,13.536-1.196,19.958-3.252
	C292.864,369.289,263.875,321.468,263.875,264.238z"/>
<path style="fill:#FFFFFF;" d="M271.678,263.801h-15.606c0-19.768,3.528-40.203,10.483-58.443l14.582,5.452
	C274.949,227.036,271.678,246.114,271.678,263.801z"/>
<path d="M482.328,50.834c-19.68-27.059-46.081-41.906-74.343-41.906s-54.664,15.013-74.342,42.071
	c-16.847,23.165-27.026,52.751-29.219,85.059c-10.183,1.023-20.025,4.172-29.25,9.279c-15.508-79.83-69.012-136.38-131.047-136.38
	c-36.68,0-70.997,19.41-96.629,54.654C22.411,98.107,8.595,143.841,8.595,192.39s13.816,94.283,38.904,128.778
	c25.632,35.245,59.949,54.654,96.629,54.654c32.084,0,62.602-15.024,86.914-42.54c3.53,7.454,7.637,14.476,12.327,20.925
	c18.094,24.878,42.387,38.579,68.405,38.579s50.311-13.7,68.404-38.579c13.203-18.153,21.938-40.736,25.458-65.237
	c0.783,0.023,1.567,0.035,2.348,0.035c28.262,0,54.664-14.888,74.343-41.947c19.134-26.31,29.673-61.147,29.673-98.12
	S501.462,77.143,482.328,50.834z M144.127,360.217C77.999,360.217,24.2,284.93,24.2,192.39c0-92.539,53.799-167.826,119.927-167.826
	c56.147,0,104.593,54.512,116.938,130.53c-6.368,5.359-12.309,11.767-17.697,19.175c-17.548,24.128-27.212,56.081-27.212,89.969
	c0,18.421,2.877,36.256,8.301,52.587C202.332,344.817,173.872,360.217,144.127,360.217z M311.774,377.18
	c-44.118,0-80.011-50.665-80.011-112.942s35.893-112.942,80.011-112.942s80.011,50.665,80.011,112.942
	S355.892,377.18,311.774,377.18z M407.985,273.399c-0.285,0-0.571-0.022-0.856-0.025c0.157-3.029,0.263-6.071,0.263-9.136
	c0-33.888-9.664-65.84-27.213-89.969c-16.154-22.212-37.252-35.504-60.106-38.1c4.689-62.512,42.325-111.523,87.912-111.523
	c48.749,0,88.41,55.623,88.41,124.265C496.394,217.554,456.734,273.399,407.985,273.399z"/>
<rect x="240.337" y="17.222" style="fill:#D4145A;" width="15.606" height="15.606"/>
<g>
	<rect x="263.226" y="40.111" style="fill:#009245;" width="16.647" height="15.606"/>
	<rect x="279.872" y="97.339" style="fill:#009245;" width="15.606" height="15.606"/>
</g>
<rect x="279.872" y="25.545" style="fill:#F15A24;" width="15.606" height="15.606"/>
<rect x="327.732" y="17.222" style="fill:#FBB03B;" width="15.606" height="15.606"/>
<g>
	<rect x="486.916" y="17.222" style="fill:#D4145A;" width="16.647" height="15.606"/>
	<rect x="447.38" y="377.212" style="fill:#D4145A;" width="16.647" height="15.606"/>
</g>
<rect x="464.026" y="391.778" style="fill:#F15A24;" width="15.606" height="15.606"/>
<rect x="431.773" y="456.284" style="fill:#FBB03B;" width="15.606" height="15.606"/>
<rect x="479.633" y="464.607" style="fill:#D4145A;" width="16.647" height="15.606"/>
<rect x="471.309" y="296.059" style="fill:#F15A24;" width="15.606" height="15.606"/>
<rect x="479.633" y="335.595" style="fill:#FBB03B;" width="16.647" height="15.606"/>
<rect x="431.773" y="424.031" style="fill:#009245;" width="15.606" height="15.606"/>
<rect x="447.38" y="495.819" style="fill:#F15A24;" width="16.647" height="15.606"/>
<rect x="496.279" y="248.2" style="fill:#009245;" width="15.606" height="15.606"/>
<rect x="367.267" y="391.778" style="fill:#F15A24;" width="15.606" height="15.606"/>
<rect x="375.591" y="416.748" style="fill:#FBB03B;" width="16.647" height="15.606"/>
<rect x="336.055" y="456.284" style="fill:#009245;" width="15.606" height="15.606"/>
<rect x="351.661" y="471.89" style="fill:#F15A24;" width="15.606" height="15.606"/>
<rect x="208.084" y="367.848" style="fill:#D4145A;" width="15.606" height="15.606"/>
<rect x="240.337" y="407.384" style="fill:#F7931E;" width="15.606" height="15.606"/>
<rect x="168.548" y="464.607" style="fill:#009245;" width="15.606" height="15.606"/>
<rect x="216.407" y="447.96" style="fill:#F15A24;" width="15.606" height="15.606"/>
<rect x="255.943" y="479.173" style="fill:#D4145A;" width="15.606" height="15.606"/>
<g>
	<rect x="199.76" y="495.819" style="fill:#F7931E;" width="16.647" height="15.606"/>
	<rect x="199.76" y="424.031" style="fill:#F7931E;" width="16.647" height="15.606"/>
</g>
<rect x="15.606" y="335.595" style="fill:#D4145A;" width="16.647" height="15.606"/>
<rect y="352.242" style="fill:#009245;" width="15.606" height="15.606"/>
<rect x="32.253" y="367.848" style="fill:#F15A24;" width="15.606" height="15.606"/>
<g>
	<rect x="104.042" y="479.173" style="fill:#D4145A;" width="15.606" height="15.606"/>
	<rect x="15.606" y="424.031" style="fill:#D4145A;" width="16.647" height="15.606"/>
</g>
<rect x="47.859" y="495.819" style="fill:#F7931E;" width="16.647" height="15.606"/>
<rect x="24.97" y="479.173" style="fill:#009245;" width="15.606" height="15.606"/>
<rect x="47.859" y="456.284" style="fill:#F15A24;" width="16.647" height="15.606"/>
<g>
	<rect x="64.506" y="391.778" style="fill:#009245;" width="15.606" height="15.606"/>
	<rect x="24.97" y="17.222" style="fill:#009245;" width="15.606" height="15.606"/>
</g>
<rect x="8.323" y="32.828" style="fill:#D4145A;" width="16.647" height="15.606"/>
<rect y="80.693" style="fill:#009245;" width="15.606" height="15.606"/>
<rect x="72.829" y="0.575" style="fill:#FBB03B;" width="14.566" height="15.606"/>
</svg>